<svg width="210" height="210" viewBox="0 0 210 210" fill="none" xmlns="http://www.w3.org/2000/svg">
<path d="M105 3.28125C48.8221 3.28125 3.28125 48.8221 3.28125 105C3.28125 161.178 48.8221 206.719 105 206.719C161.178 206.719 206.719 161.178 206.719 105C206.719 48.8221 161.178 3.28125 105 3.28125ZM105 22.9688C150.335 22.9688 187.031 59.6576 187.031 105C187.031 150.335 150.342 187.031 105 187.031C59.6646 187.031 22.9688 150.342 22.9688 105C22.9688 59.6646 59.6576 22.9688 105 22.9688ZM162.506 76.3986L153.262 67.0806C151.348 65.1509 148.232 65.1381 146.302 67.0528L88.3255 124.563L63.8014 99.8402C61.8872 97.9104 58.7709 97.8977 56.8411 99.8119L47.5228 109.055C45.593 110.969 45.5803 114.086 47.4949 116.016L84.7293 153.552C86.6435 155.482 89.7598 155.494 91.6896 153.58L162.478 83.3593C164.407 81.4447 164.42 78.3284 162.506 76.3986Z" fill="#3FC400"/>
</svg>
