<svg width="439" height="439" viewBox="0 0 439 439" fill="none" xmlns="http://www.w3.org/2000/svg">
<path d="M219.188 0C98.1451 0 0 98.1451 0 219.188C0 340.23 98.1451 438.375 219.188 438.375C340.23 438.375 438.375 340.23 438.375 219.188C438.375 98.1451 340.23 0 219.188 0ZM219.188 401.191C118.694 401.191 37.1836 319.681 37.1836 219.188C37.1836 118.694 118.694 37.1836 219.188 37.1836C319.681 37.1836 401.191 118.694 401.191 219.188C401.191 319.681 319.681 401.191 219.188 401.191Z" fill="#D20202"/>
<path d="M303.675 140.914C303.675 138.761 301.913 137 299.761 137L267.47 137.147L218.837 195.124L170.254 137.196L137.914 137.049C135.761 137.049 134 138.761 134 140.963C134 141.893 134.342 142.773 134.93 143.507L198.582 219.342L134.93 295.128C134.338 295.845 134.01 296.743 134 297.672C134 299.825 135.761 301.586 137.914 301.586L170.254 301.44L218.837 243.463L267.421 301.391L299.712 301.537C301.864 301.537 303.626 299.825 303.626 297.623C303.626 296.694 303.283 295.813 302.696 295.079L239.142 219.293L302.794 143.458C303.381 142.773 303.675 141.844 303.675 140.914Z" fill="#D20202"/>
</svg>
