<svg width="46" height="45" viewBox="0 0 46 45" fill="none" xmlns="http://www.w3.org/2000/svg">
<path d="M20.4464 34.603C24.3215 34.603 28.0379 33.0636 30.778 30.3235C33.5182 27.5833 35.0575 23.867 35.0575 19.9918C35.0575 16.1167 33.5182 12.4003 30.778 9.6602C28.0379 6.92008 24.3215 5.3807 20.4464 5.3807C16.5713 5.3807 12.8549 6.92008 10.1147 9.6602C7.37462 12.4003 5.83523 16.1167 5.83523 19.9918C5.83523 23.867 7.37462 27.5833 10.1147 30.3235C12.8549 33.0636 16.5713 34.603 20.4464 34.603ZM35.8368 31.9389L44.5548 40.6569C44.7872 40.8817 44.9725 41.1505 45.0999 41.4477C45.2274 41.7449 45.2943 42.0645 45.2969 42.3878C45.2995 42.7112 45.2376 43.0318 45.115 43.331C44.9923 43.6301 44.8113 43.9019 44.5825 44.1304C44.3537 44.3589 44.0817 44.5395 43.7823 44.6617C43.4829 44.784 43.1622 44.8454 42.8389 44.8423C42.5156 44.8393 42.1961 44.7719 41.8991 44.6441C41.602 44.5162 41.3335 44.3305 41.109 44.0978L32.391 35.3798C28.4763 38.4185 23.5508 39.8512 18.617 39.3862C13.6832 38.9211 9.11204 36.5933 5.83414 32.8766C2.55624 29.1599 0.817969 24.3336 0.973191 19.3804C1.12841 14.4272 3.16546 9.71929 6.66964 6.21511C10.1738 2.71093 14.8817 0.673884 19.835 0.518662C24.7882 0.363441 29.6144 2.10171 33.3311 5.3796C37.0479 8.6575 39.3757 13.2286 39.8407 18.1624C40.3058 23.0962 38.8731 28.0218 35.8344 31.9364L35.8368 31.9389Z" fill="#787878"/>
</svg>
